<svg width="1177" height="165" viewBox="0 0 1177 165" fill="none" xmlns="http://www.w3.org/2000/svg">
<path d="M2 163H35V115H98.5V98.5H114V17.5H98.5V2.5H2V163Z" stroke="#C1A2FA" stroke-width="4" stroke-linejoin="round"/>
<path d="M162 2.5H131.5V33.5H162V2.5Z" stroke="#C1A2FA" stroke-width="4" stroke-linejoin="round"/>
<path d="M162 51.5H131.5V163H162V51.5Z" stroke="#C1A2FA" stroke-width="4" stroke-linejoin="round"/>
<path d="M275 33.5H196.5V51.5H179V67.5H260.5V82H196.5V98.5H179V147.5H196.5V163H243V147.5H260.5V163H291.5V51.5H275V33.5Z" stroke="#C1A2FA" stroke-width="4" stroke-linejoin="round"/>
<path d="M420 33.5H308V67.5H372.5V82H356V98.5H339.5V115H323.5V130H308V163H420V130H372.5V115H388V98.5H404V82H420V33.5Z" stroke="#C1A2FA" stroke-width="4" stroke-linejoin="round"/>
<path d="M532.5 3H436.5V33.5H468V163H501V33.5H532.5V3Z" stroke="#C1A2FA" stroke-width="4" stroke-linejoin="round"/>
<path d="M581 3H548.5V163H581V67.5H629V163H661V51.5H645V33.5H598V51.5H581V3Z" stroke="#C1A2FA" stroke-width="4" stroke-linejoin="round"/>
<path d="M693 51.5H677.5V146.5H693V163H773.5V146.5H790V132H708.5V114.5H790V51.5H773.5V33.5H693V51.5Z" stroke="#C1A2FA" stroke-width="4" stroke-linejoin="round"/>
<path d="M902.5 2H806.5V163H902.5V146.5H917V19H902.5V2Z" stroke="#C1A2FA" stroke-width="4" stroke-linejoin="round"/>
<path d="M951 51.5H935.5V146.5H951V163H1031V146.5H1047V132H967V114.5H1047V51.5H1031V33.5H951V51.5Z" stroke="#C1A2FA" stroke-width="4" stroke-linejoin="round"/>
<path d="M1096 33.5H1063.5V114.5H1079V129.5H1096V146.5H1111V163H1128V146.5H1144V129.5H1158.5V114.5H1175V33.5H1144V98H1128V114.5H1111V98H1096V33.5Z" stroke="#C1A2FA" stroke-width="4" stroke-linejoin="round"/>
</svg>
