<svg width="1177" height="165" viewBox="0 0 1177 165" fill="none" xmlns="http://www.w3.org/2000/svg">
<path d="M98.5 0.5C99.6046 0.5 100.5 1.39543 100.5 2.5V15.5H114C115.105 15.5 116 16.3954 116 17.5V98.5C116 99.6046 115.105 100.5 114 100.5H100.5V115C100.5 116.105 99.6046 117 98.5 117H37V163C37 164.105 36.1046 165 35 165H2C0.89543 165 0 164.105 0 163V2.5C0 1.39543 0.89543 0.5 2 0.5H98.5ZM162 49.5C163.105 49.5 164 50.3954 164 51.5V163C164 164.105 163.105 165 162 165H131.5C130.395 165 129.5 164.105 129.5 163V51.5C129.5 50.3954 130.395 49.5 131.5 49.5H162ZM275 31.5C276.105 31.5 277 32.3954 277 33.5V49.5H291.5C292.605 49.5 293.5 50.3954 293.5 51.5V163C293.5 164.105 292.605 165 291.5 165H260.5C259.395 165 258.5 164.105 258.5 163V149.5H245V163C245 164.105 244.105 165 243 165H196.5C195.395 165 194.5 164.105 194.5 163V149.5H179C177.895 149.5 177 148.605 177 147.5V98.5C177 97.3954 177.895 96.5 179 96.5H194.5V82C194.5 80.8954 195.395 80 196.5 80H258.5V69.5H179C177.895 69.5 177 68.6046 177 67.5V51.5C177 50.3954 177.895 49.5 179 49.5H194.5V33.5C194.5 32.3954 195.395 31.5 196.5 31.5H275ZM420 31.5C421.105 31.5 422 32.3954 422 33.5V82C422 83.1046 421.105 84 420 84H406V98.5C406 99.6046 405.105 100.5 404 100.5H390V115C390 116.105 389.105 117 388 117H374.5V128H420C421.105 128 422 128.895 422 130V163C422 164.105 421.105 165 420 165H308C306.895 165 306 164.105 306 163V130C306 128.895 306.895 128 308 128H321.5V115C321.5 113.895 322.395 113 323.5 113H337.5V98.5C337.5 97.3954 338.395 96.5 339.5 96.5H354V82C354 80.8954 354.895 80 356 80H370.5V69.5H308C306.895 69.5 306 68.6046 306 67.5V33.5C306 32.3954 306.895 31.5 308 31.5H420ZM532.5 1C533.605 1 534.5 1.89543 534.5 3V33.5C534.5 34.6046 533.605 35.5 532.5 35.5H503V163C503 164.105 502.105 165 501 165H468C466.895 165 466 164.105 466 163V35.5H436.5C435.395 35.5 434.5 34.6046 434.5 33.5V3C434.5 1.89543 435.395 1 436.5 1H532.5ZM581 1C582.105 1 583 1.89543 583 3V49.5H596V33.5C596 32.3954 596.895 31.5 598 31.5H645C646.105 31.5 647 32.3954 647 33.5V49.5H661C662.105 49.5 663 50.3954 663 51.5V163C663 164.105 662.105 165 661 165H629C627.895 165 627 164.105 627 163V69.5H583V163C583 164.105 582.105 165 581 165H548.5C547.395 165 546.5 164.105 546.5 163V3C546.5 1.89543 547.395 1 548.5 1H581ZM773.5 31.5C774.605 31.5 775.5 32.3954 775.5 33.5V49.5H790C791.105 49.5 792 50.3954 792 51.5V114.5C792 115.605 791.105 116.5 790 116.5H710.5V130H790C791.105 130 792 130.895 792 132V146.5C792 147.605 791.105 148.5 790 148.5H775.5V163C775.5 164.105 774.605 165 773.5 165H693C691.895 165 691 164.105 691 163V148.5H677.5C676.395 148.5 675.5 147.605 675.5 146.5V51.5C675.5 50.3954 676.395 49.5 677.5 49.5H691V33.5C691 32.3954 691.895 31.5 693 31.5H773.5ZM902.5 0C903.605 0 904.5 0.89543 904.5 2V17H917C918.105 17 919 17.8954 919 19V146.5C919 147.605 918.105 148.5 917 148.5H904.5V163C904.5 164.105 903.605 165 902.5 165H806.5C805.395 165 804.5 164.105 804.5 163V2C804.5 0.89543 805.395 0 806.5 0H902.5ZM1031 31.5C1032.1 31.5 1033 32.3954 1033 33.5V49.5H1047C1048.1 49.5 1049 50.3954 1049 51.5V114.5C1049 115.605 1048.1 116.5 1047 116.5H969V130H1047C1048.1 130 1049 130.895 1049 132V146.5C1049 147.605 1048.1 148.5 1047 148.5H1033V163C1033 164.105 1032.1 165 1031 165H951C949.895 165 949 164.105 949 163V148.5H935.5C934.395 148.5 933.5 147.605 933.5 146.5V51.5C933.5 50.3954 934.395 49.5 935.5 49.5H949V33.5C949 32.3954 949.895 31.5 951 31.5H1031ZM1096 31.5C1097.1 31.5 1098 32.3954 1098 33.5V96H1111C1112.1 96 1113 96.8954 1113 98V112.5H1126V98C1126 96.8954 1126.9 96 1128 96H1142V33.5C1142 32.3954 1142.9 31.5 1144 31.5H1175C1176.1 31.5 1177 32.3954 1177 33.5V114.5C1177 115.605 1176.1 116.5 1175 116.5H1160.5V129.5C1160.5 130.605 1159.6 131.5 1158.5 131.5H1146V146.5C1146 147.605 1145.1 148.5 1144 148.5H1130V163C1130 164.105 1129.1 165 1128 165H1111C1109.9 165 1109 164.105 1109 163V148.5H1096C1094.9 148.5 1094 147.605 1094 146.5V131.5H1079C1077.9 131.5 1077 130.605 1077 129.5V116.5H1063.5C1062.4 116.5 1061.5 115.605 1061.5 114.5V33.5C1061.5 32.3954 1062.4 31.5 1063.5 31.5H1096ZM1065.5 112.5H1079C1080.1 112.5 1081 113.395 1081 114.5V127.5H1096C1097.1 127.5 1098 128.395 1098 129.5V144.5H1111C1112.1 144.5 1113 145.395 1113 146.5V161H1126V146.5C1126 145.395 1126.9 144.5 1128 144.5H1142V129.5C1142 128.395 1142.9 127.5 1144 127.5H1156.5V114.5C1156.5 113.395 1157.4 112.5 1158.5 112.5H1173V35.5H1146V98C1146 99.1046 1145.1 100 1144 100H1130V114.5C1130 115.605 1129.1 116.5 1128 116.5H1111C1109.9 116.5 1109 115.605 1109 114.5V100H1096C1094.9 100 1094 99.1046 1094 98V35.5H1065.5V112.5ZM953 51.5C953 52.6046 952.105 53.5 951 53.5H937.5V144.5H951C952.105 144.5 953 145.395 953 146.5V161H1029V146.5C1029 145.395 1029.9 144.5 1031 144.5H1045V134H967C965.895 134 965 133.105 965 132V114.5C965 113.395 965.895 112.5 967 112.5H1045V53.5H1031C1029.9 53.5 1029 52.6046 1029 51.5V35.5H953V51.5ZM808.5 161H900.5V146.5C900.5 145.395 901.395 144.5 902.5 144.5H915V21H902.5C901.395 21 900.5 20.1046 900.5 19V4H808.5V161ZM695 51.5C695 52.6046 694.105 53.5 693 53.5H679.5V144.5H693C694.105 144.5 695 145.395 695 146.5V161H771.5V146.5C771.5 145.395 772.395 144.5 773.5 144.5H788V134H708.5C707.395 134 706.5 133.105 706.5 132V114.5C706.5 113.395 707.395 112.5 708.5 112.5H788V53.5H773.5C772.395 53.5 771.5 52.6046 771.5 51.5V35.5H695V51.5ZM550.5 161H579V67.5C579 66.3954 579.895 65.5 581 65.5H629C630.105 65.5 631 66.3954 631 67.5V161H659V53.5H645C643.895 53.5 643 52.6046 643 51.5V35.5H600V51.5C600 52.6046 599.105 53.5 598 53.5H581C579.895 53.5 579 52.6046 579 51.5V5H550.5V161ZM438.5 31.5H468C469.105 31.5 470 32.3954 470 33.5V161H499V33.5C499 32.3954 499.895 31.5 501 31.5H530.5V5H438.5V31.5ZM310 65.5H372.5C373.605 65.5 374.5 66.3954 374.5 67.5V82C374.5 83.1046 373.605 84 372.5 84H358V98.5C358 99.6046 357.105 100.5 356 100.5H341.5V115C341.5 116.105 340.605 117 339.5 117H325.5V130C325.5 131.105 324.605 132 323.5 132H310V161H418V132H372.5C371.395 132 370.5 131.105 370.5 130V115C370.5 113.895 371.395 113 372.5 113H386V98.5C386 97.3954 386.895 96.5 388 96.5H402V82C402 80.8954 402.895 80 404 80H418V35.5H310V65.5ZM198.5 51.5C198.5 52.6046 197.605 53.5 196.5 53.5H181V65.5H260.5C261.605 65.5 262.5 66.3954 262.5 67.5V82C262.5 83.1046 261.605 84 260.5 84H198.5V98.5C198.5 99.6046 197.605 100.5 196.5 100.5H181V145.5H196.5C197.605 145.5 198.5 146.395 198.5 147.5V161H241V147.5C241 146.395 241.895 145.5 243 145.5H260.5C261.605 145.5 262.5 146.395 262.5 147.5V161H289.5V53.5H275C273.895 53.5 273 52.6046 273 51.5V35.5H198.5V51.5ZM133.5 161H160V53.5H133.5V161ZM4 161H33V115C33 113.895 33.8954 113 35 113H96.5V98.5C96.5 97.3954 97.3954 96.5 98.5 96.5H112V19.5H98.5C97.3954 19.5 96.5 18.6046 96.5 17.5V4.5H4V161ZM870.5 31.5C871.605 31.5 872.5 32.3954 872.5 33.5V49.5H887C888.105 49.5 889 50.3954 889 51.5V114.5C889 115.605 888.105 116.5 887 116.5H872.5V132C872.5 133.105 871.605 134 870.5 134H838.5C837.395 134 836.5 133.105 836.5 132V33.5C836.5 32.3954 837.395 31.5 838.5 31.5H870.5ZM260.5 113C261.605 113 262.5 113.895 262.5 115V130C262.5 131.105 261.605 132 260.5 132H211C209.895 132 209 131.105 209 130V115C209 113.895 209.895 113 211 113H260.5ZM840.5 130H868.5V114.5C868.5 113.395 869.395 112.5 870.5 112.5H885V53.5H870.5C869.395 53.5 868.5 52.6046 868.5 51.5V35.5H840.5V130ZM213 128H258.5V117H213V128ZM1015 65C1016.1 65 1017 65.8954 1017 67V83C1017 84.1046 1016.1 85 1015 85H967C965.895 85 965 84.1046 965 83V67C965 65.8954 965.895 65 967 65H1015ZM757.5 65.5C758.605 65.5 759.5 66.3954 759.5 67.5V82.5C759.5 83.6046 758.605 84.5 757.5 84.5H708.5C707.395 84.5 706.5 83.6046 706.5 82.5V67.5C706.5 66.3954 707.395 65.5 708.5 65.5H757.5ZM82.5 31.5C83.6046 31.5 84.5 32.3954 84.5 33.5V82C84.5 83.1046 83.6046 84 82.5 84H35C33.8954 84 33 83.1046 33 82V33.5C33 32.3954 33.8954 31.5 35 31.5H82.5ZM969 81H1013V69H969V81ZM710.5 80.5H755.5V69.5H710.5V80.5ZM37 80H80.5V35.5H37V80ZM162 0.5C163.105 0.5 164 1.39543 164 2.5V33.5C164 34.6046 163.105 35.5 162 35.5H131.5C130.395 35.5 129.5 34.6046 129.5 33.5V2.5C129.5 1.39543 130.395 0.5 131.5 0.5H162ZM133.5 31.5H160V4.5H133.5V31.5Z" fill="#C1A2FA"/>
</svg>
